<svg width="36" height="36" viewBox="0 0 36 36" fill="none" xmlns="http://www.w3.org/2000/svg">
<path d="M8.66667 25H27.3333C27.975 25 28.5 24.475 28.5 23.8333C28.5 23.1917 27.975 22.6667 27.3333 22.6667H8.66667C8.025 22.6667 7.5 23.1917 7.5 23.8333C7.5 24.475 8.025 25 8.66667 25ZM8.66667 19.1667H27.3333C27.975 19.1667 28.5 18.6417 28.5 18C28.5 17.3583 27.975 16.8333 27.3333 16.8333H8.66667C8.025 16.8333 7.5 17.3583 7.5 18C7.5 18.6417 8.025 19.1667 8.66667 19.1667ZM7.5 12.1667C7.5 12.8083 8.025 13.3333 8.66667 13.3333H27.3333C27.975 13.3333 28.5 12.8083 28.5 12.1667C28.5 11.525 27.975 11 27.3333 11H8.66667C8.025 11 7.5 11.525 7.5 12.1667Z" fill="white"/>
</svg>
